<svg width="580" height="435" viewBox="0 0 580 435" fill="none" xmlns="http://www.w3.org/2000/svg">
<g clip-path="url(#clip0)">
<path d="M268.767 374.762C372.254 374.762 456.148 290.869 456.148 187.381C456.148 83.8934 372.254 0 268.767 0C165.279 0 81.3855 83.8934 81.3855 187.381C81.3855 290.869 165.279 374.762 268.767 374.762Z" fill="url(#paint0_radial)"/>
<path d="M488.77 196.766C523.477 196.766 551.612 168.631 551.612 133.924C551.612 99.2173 523.477 71.082 488.77 71.082C454.064 71.082 425.928 99.2173 425.928 133.924C425.928 168.631 454.064 196.766 488.77 196.766Z" fill="url(#paint1_radial)"/>
<path d="M38.9185 166.091C60.4126 166.091 77.837 148.666 77.837 127.172C77.837 105.678 60.4126 88.2539 38.9185 88.2539C17.4244 88.2539 0 105.678 0 127.172C0 148.666 17.4244 166.091 38.9185 166.091Z" fill="url(#paint2_radial)"/>
<path fill-rule="evenodd" clip-rule="evenodd" d="M169.868 127.172H336.53C336.53 127.172 337.561 118.358 328.06 114.351C318.559 110.231 309.516 124.539 309.516 124.539C309.516 124.539 301.504 83.3311 261.212 77.0355C220.92 70.7398 211.991 123.28 211.991 123.28C211.991 123.28 210.389 116.297 206.039 116.87C201.689 117.442 199.4 125.226 199.4 125.226C199.4 125.226 182.344 110.116 169.868 127.172Z" fill="url(#paint3_linear)"/>
<path fill-rule="evenodd" clip-rule="evenodd" d="M128.431 127.172H93.9768C93.9768 127.172 116.87 112.863 128.431 127.172Z" fill="url(#paint4_linear)"/>
<path fill-rule="evenodd" clip-rule="evenodd" d="M280.213 48.7607L454.66 49.6764C454.66 49.6764 450.882 37.6574 432.682 47.0437C432.682 47.0437 427.073 16.7101 399.029 16.0233C371.099 15.451 363.545 46.9292 363.545 46.9292C363.545 46.9292 355.074 39.7178 346.603 40.1757C338.133 40.6336 336.645 47.1581 336.645 47.1581C336.645 47.1581 324.512 21.5177 307.571 19.8007C290.63 18.0837 280.213 48.7607 280.213 48.7607Z" fill="url(#paint5_linear)"/>
<path fill-rule="evenodd" clip-rule="evenodd" d="M380.371 59.75L380.485 233.739L420.32 240.95L444.358 98.8974L380.371 59.75Z" fill="url(#paint6_linear)"/>
<path fill-rule="evenodd" clip-rule="evenodd" d="M477.324 402.117L456.72 106.68L423.296 128.314L342.597 196.536L339.392 216.796L477.324 402.117Z" fill="url(#paint7_linear)"/>
<path fill-rule="evenodd" clip-rule="evenodd" d="M571.072 434.17L580 385.751L17.7422 385.637L22.4353 425.585L571.072 434.17Z" fill="url(#paint8_linear)"/>
<path fill-rule="evenodd" clip-rule="evenodd" d="M580 385.749L515.784 365.031L85.7351 360.91L17.7422 385.635L580 385.749Z" fill="url(#paint9_linear)"/>
<path fill-rule="evenodd" clip-rule="evenodd" d="M515.784 365.032L516.357 336.301H81.6143L85.735 360.911L515.784 365.032Z" fill="url(#paint10_linear)"/>
<path fill-rule="evenodd" clip-rule="evenodd" d="M81.6143 336.302L124.31 324.855H479.499L516.357 336.302H81.6143Z" fill="url(#paint11_linear)"/>
<path fill-rule="evenodd" clip-rule="evenodd" d="M124.196 324.853L122.021 306.195L479.842 307.569L479.499 324.853H124.196Z" fill="url(#paint12_linear)"/>
<path fill-rule="evenodd" clip-rule="evenodd" d="M122.021 306.195L150.179 303.104L452.027 302.074L479.842 307.569L122.021 306.195Z" fill="url(#paint13_linear)"/>
<path fill-rule="evenodd" clip-rule="evenodd" d="M452.027 302.076L451.912 286.852L146.746 287.538L148.234 303.22L452.027 302.076Z" fill="url(#paint14_linear)"/>
<path fill-rule="evenodd" clip-rule="evenodd" d="M436.803 286.05V275.29L165.747 273.688L166.09 286.05H436.803Z" fill="url(#paint15_linear)"/>
<path fill-rule="evenodd" clip-rule="evenodd" d="M436.803 275.292L420.892 273.689L179.597 272.773L165.747 273.689L436.803 275.292Z" fill="url(#paint16_linear)"/>
<path fill-rule="evenodd" clip-rule="evenodd" d="M420.892 273.689V262.242L179.254 263.501L179.483 272.773L420.892 273.689Z" fill="url(#paint17_linear)"/>
<path fill-rule="evenodd" clip-rule="evenodd" d="M407.614 264.187V252.512L192.875 253.199L193.219 265.675L407.614 264.187Z" fill="url(#paint18_linear)"/>
<path fill-rule="evenodd" clip-rule="evenodd" d="M399.372 245.872L400.174 255.373H204.322L204.208 244.613L399.372 245.872Z" fill="url(#paint19_linear)"/>
<path fill-rule="evenodd" clip-rule="evenodd" d="M387.582 237.516L387.811 247.818L213.594 249.191L213.25 237.516H387.582Z" fill="url(#paint20_linear)"/>
<path fill-rule="evenodd" clip-rule="evenodd" d="M379.799 231.563L380.371 240.148L222.522 240.949V230.418L379.799 231.563Z" fill="url(#paint21_linear)"/>
<path fill-rule="evenodd" clip-rule="evenodd" d="M372.358 225.727L372.702 232.709L229.962 230.535V224.926L372.358 225.727Z" fill="url(#paint22_linear)"/>
<path fill-rule="evenodd" clip-rule="evenodd" d="M179.254 263.498L193.219 262.125L407.614 260.637L420.892 262.239L179.254 263.498Z" fill="url(#paint23_linear)"/>
<path fill-rule="evenodd" clip-rule="evenodd" d="M243.24 219.43L427.645 98.554L380.371 59.75L387.124 60.2079L456.72 106.681L356.791 212.219V216.798L356.562 221.147L346.146 223.437L243.24 219.43Z" fill="url(#paint24_linear)"/>
<path fill-rule="evenodd" clip-rule="evenodd" d="M364.231 226.756V219.43H237.174V226.756H364.231Z" fill="url(#paint25_linear)"/>
<path fill-rule="evenodd" clip-rule="evenodd" d="M451.912 286.85L436.803 285.133L163.229 286.049L146.746 287.537L451.912 286.85Z" fill="url(#paint26_linear)"/>
<path opacity="0.3" fill-rule="evenodd" clip-rule="evenodd" d="M195.623 305.74L206.268 304.824H234.198L221.95 306.656L221.606 324.856L181.658 336.302L182.573 361.943L134.841 385.752V426.044H38.9185L41.6656 385.752L138.847 361.485L140.908 336.302L193.906 324.856L195.623 305.74Z" fill="black"/>
<path opacity="0.91" d="M226.643 259.613C226.643 259.613 220.805 263.505 219.775 264.649C218.745 265.679 215.998 270.83 215.769 271.288C216.112 269.8 227.33 221.839 226.529 219.092C225.727 216.23 213.594 217.833 208.1 225.158C209.015 221.152 217.715 207.76 217.715 207.76C212.335 208.332 187.381 213.712 187.381 213.712C182.001 215.085 166.548 222.182 166.548 222.182C164.488 236.491 152.583 272.204 147.661 286.627C145.944 287.886 143.77 289.717 142.51 291.32C140.336 294.182 132.666 334.931 134.269 346.836C134.269 346.836 131.751 347.294 130.263 348.21C129.576 348.667 128.66 349.698 127.744 350.842C129.69 339.167 134.956 307.002 134.841 295.326C134.841 295.326 127.859 288.458 118.129 293.495C118.93 291.892 123.738 287.314 126.943 280.903C130.148 274.493 138.275 222.64 138.275 222.64L136.787 219.206L139.763 202.265L182.917 186.354C184.405 185.897 185.893 185.553 187.61 185.324L181.543 192.65C181.543 192.65 179.483 195.97 196.424 195.741C213.479 195.512 237.059 193.68 237.059 193.68C237.059 193.68 219.661 246.449 226.643 259.613Z" fill="url(#paint27_linear)"/>
<path fill-rule="evenodd" clip-rule="evenodd" d="M215.998 275.981L215.425 277.926L215.311 278.155C215.311 278.155 215.54 282.963 213.479 285.252C212.907 285.939 212.106 286.397 211.076 286.511C211.076 286.511 210.847 286.168 210.618 285.596C209.702 283.879 207.756 280.445 206.84 280.101C205.581 279.643 201.918 279.643 201.918 279.643C201.918 279.643 201.117 278.27 201.232 277.698C201.346 277.125 202.376 276.667 202.376 276.667L203.521 272.89L204.093 271.059L214.967 268.426C214.967 268.426 214.853 269.113 214.853 270.143C214.739 271.287 214.739 272.661 214.739 273.92C214.739 274.836 214.853 275.523 214.967 275.866H215.998V275.981Z" fill="url(#paint28_linear)"/>
<path opacity="0.5" d="M215.425 278.042L215.311 278.27C215.311 278.27 215.54 283.078 213.479 285.367L210.618 285.711C209.702 283.994 207.756 280.56 206.84 280.216C205.581 279.759 201.918 279.758 201.918 279.758C201.918 279.758 201.117 278.385 201.232 277.813C201.346 277.24 202.376 276.782 202.376 276.782L203.521 273.005L209.816 270.487L214.739 270.258C214.624 271.402 214.624 272.776 214.624 274.035C214.624 274.035 213.022 276.782 205.696 276.897L204.093 277.584C204.208 277.698 213.365 279.415 215.425 278.042Z" fill="url(#paint29_linear)"/>
<path fill-rule="evenodd" clip-rule="evenodd" d="M130.72 364.693C129.347 366.41 117.671 362.632 117.671 362.632L117.328 355.879L129.347 345.691L129.118 350.842C129.118 350.842 130.491 350.842 130.606 351.3C130.72 351.758 129.461 354.162 129.461 354.162C129.461 354.162 132.094 362.976 130.72 364.693Z" fill="url(#paint30_linear)"/>
<path opacity="0.5" d="M130.72 364.693C129.347 366.41 117.671 362.632 117.671 362.632L117.328 355.879L129.347 345.691L129.118 350.842C129.118 350.842 126.485 355.993 120.991 359.198C121.449 358.969 129.576 355.192 130.606 351.3C130.72 351.758 129.461 354.162 129.461 354.162C129.461 354.162 132.094 362.976 130.72 364.693Z" fill="url(#paint31_linear)"/>
<path fill-rule="evenodd" clip-rule="evenodd" d="M225.727 145.946C225.727 145.946 226.3 146.747 225.956 147.205C225.842 147.434 224.125 147.778 221.835 148.236C221.721 148.236 221.607 148.236 221.378 148.35C221.263 148.35 221.149 148.35 221.034 148.464H220.92C219.317 148.808 217.371 149.38 215.311 149.953C209.817 151.784 204.895 155.79 204.895 155.79L206.039 156.248C206.039 156.248 209.931 155.676 211.19 155.104C212.449 154.531 214.281 153.272 214.281 153.272C214.281 153.272 218.287 152.814 220.004 154.875L219.432 156.363C219.432 156.363 215.196 156.019 211.076 157.851C206.955 159.682 203.979 161.056 203.063 161.285C202.949 161.285 202.834 161.285 202.72 161.285C202.491 161.285 202.262 161.17 202.033 161.056C201.918 160.941 201.804 160.941 201.575 160.827C200.316 160.254 198.599 159.224 197.34 158.652C197.111 158.538 196.996 158.423 196.767 158.423C196.767 158.423 196.653 158.423 196.653 158.309C196.538 158.309 196.424 158.194 196.31 158.194C196.195 158.194 196.081 158.08 196.081 158.08C195.966 158.08 195.966 158.08 195.852 158.08C195.508 158.08 194.707 158.309 193.677 158.652C192.647 158.995 191.387 159.453 190.472 159.797C189.785 160.026 189.213 160.254 189.213 160.254L191.273 150.868C191.273 150.868 191.616 150.754 192.074 150.639C192.189 150.639 192.418 150.525 192.532 150.525C192.647 150.525 192.876 150.41 192.99 150.41C194.135 150.067 195.623 149.495 196.424 149.151C197.912 148.579 206.039 139.88 207.985 139.078C209.931 138.277 214.853 137.934 214.853 137.934C214.853 137.934 214.968 138.735 214.624 139.193C214.395 139.422 212.22 140.337 210.618 141.024C209.702 141.482 208.901 141.825 208.672 141.94C208.1 142.398 206.955 143.771 206.84 144C207.069 143.886 210.16 142.054 213.136 141.368C213.365 141.368 213.594 141.253 213.823 141.253C217.028 140.681 224.01 141.825 224.01 141.825C224.01 141.825 224.354 143.314 223.781 143.771C223.781 143.771 225.956 144.115 226.414 144.573C226.758 144.229 226.414 145.488 225.727 145.946Z" fill="url(#paint32_linear)"/>
<path opacity="0.91" d="M197.683 158.421C196.882 157.964 196.195 157.735 195.966 157.735C195.623 157.735 194.822 157.964 193.791 158.307C192.761 158.65 191.502 159.108 190.586 159.452L192.532 150.18L192.761 149.035L195.165 149.264C196.882 151.782 197.683 158.421 197.683 158.421Z" fill="url(#paint33_linear)"/>
<path opacity="0.91" d="M223.896 142.512C223.896 142.512 218.859 142.169 215.654 142.512C212.564 142.855 208.786 144.572 208.786 144.572C208.786 144.572 216.341 141.711 223.553 143.199C223.667 143.199 223.896 142.855 223.896 142.512Z" fill="url(#paint34_linear)"/>
<path opacity="0.91" d="M225.727 145.948C225.727 145.948 221.721 144.918 217.486 145.146C213.251 145.375 210.961 146.749 210.961 146.749C210.961 146.749 216.112 145.604 219.203 145.604C222.293 145.604 225.727 145.948 225.727 145.948Z" fill="url(#paint35_linear)"/>
<path opacity="0.4" d="M220.92 148.35C219.317 148.693 217.371 149.265 215.311 149.838C209.817 151.669 204.895 155.675 204.895 155.675C204.895 155.675 202.491 159.338 202.605 160.941C202.376 160.941 202.147 160.826 201.918 160.712C201.804 160.597 201.689 160.597 201.461 160.483C200.201 159.911 198.484 158.88 197.225 158.308C196.996 158.194 196.882 158.079 196.653 158.079C196.653 158.079 196.539 158.079 196.539 157.965C196.424 157.965 196.31 157.85 196.195 157.85C196.081 157.85 195.966 157.736 195.966 157.736C195.852 157.736 195.852 157.736 195.737 157.736C195.394 157.736 194.593 157.965 193.562 158.308L192.074 150.295C192.189 150.295 192.418 150.181 192.532 150.181C192.647 150.181 192.876 150.067 192.99 150.067C194.135 149.723 195.623 149.151 196.424 148.807C197.912 148.235 206.039 139.536 207.985 138.734L207.298 139.765L209.473 140.337L210.618 140.566C209.702 141.024 208.901 141.367 208.672 141.482C208.1 141.939 206.955 143.313 206.84 143.542C207.069 143.427 210.16 141.596 213.136 140.909C213.136 141.482 213.251 142.741 213.823 142.97C213.823 142.97 213.823 145.144 214.624 145.602C214.624 145.602 214.624 148.693 216.57 148.922C217.715 148.922 219.661 148.578 220.92 148.35Z" fill="url(#paint36_linear)"/>
<path fill-rule="evenodd" clip-rule="evenodd" d="M192.074 149.038L194.593 148.809C194.593 148.809 196.195 155.905 192.876 160.713L189.556 161.972C189.442 161.972 192.647 151.785 192.074 149.038Z" fill="url(#paint37_linear)"/>
<path fill-rule="evenodd" clip-rule="evenodd" d="M184.405 148.809L192.761 149.038C192.761 149.038 192.761 159.683 188.984 164.147L181.543 164.605C181.658 164.605 183.833 153.044 184.405 148.809Z" fill="url(#paint38_radial)"/>
<path fill-rule="evenodd" clip-rule="evenodd" d="M218.287 301.62L214.395 301.277L212.106 301.163C212.106 301.163 212.335 300.59 212.793 300.018C213.479 298.873 214.739 297.156 215.769 297.156C216.57 297.156 217.257 298.301 217.715 299.446C218.058 300.59 218.287 301.62 218.287 301.62Z" fill="#B53D27"/>
<path fill-rule="evenodd" clip-rule="evenodd" d="M238.777 291.09C238.662 291.319 238.548 291.548 238.433 291.777C233.626 302.079 218.287 301.506 218.287 301.506C218.287 301.506 216.685 299.446 215.998 299.56C215.54 299.56 214.853 300.476 214.281 301.277C213.937 301.85 213.594 302.308 213.594 302.308C208.672 304.253 199.515 302.308 199.515 302.308L198.599 298.874L212.678 293.379L219.432 292.807L238.777 291.09Z" fill="url(#paint39_linear)"/>
<path fill-rule="evenodd" clip-rule="evenodd" d="M138.848 381.976L133.926 381.747L131.865 381.633C131.865 381.633 131.865 381.289 131.98 380.717C132.209 379.343 133.01 376.711 135.185 377.512C136.787 378.084 137.703 379.343 138.275 380.374C138.619 381.289 138.848 381.976 138.848 381.976Z" fill="#B53D27"/>
<path fill-rule="evenodd" clip-rule="evenodd" d="M154.071 369.383C152.469 380.6 138.733 381.974 138.733 381.974C136.444 380.372 134.841 380.6 134.841 380.6L133.811 381.745L131.636 384.263C126.256 387.354 116.641 384.836 116.641 384.836L116.183 381.86V381.402L119.045 376.48L138.39 372.588L154.071 369.383Z" fill="url(#paint40_linear)"/>
<path fill-rule="evenodd" clip-rule="evenodd" d="M238.548 196.539C237.975 201.003 235.571 209.13 233.168 219.661C229.963 233.397 226.872 258.007 226.758 259.61V259.724C226.758 259.724 220.92 263.616 219.89 264.761C218.859 265.791 216.112 270.942 215.883 271.4C211.076 276.551 202.376 274.262 202.376 274.262L202.72 272.888C206.039 265.448 207.298 229.162 208.214 225.156C209.13 221.149 217.829 207.757 217.829 207.757C212.449 208.329 187.496 213.709 187.496 213.709C182.116 215.083 166.663 222.18 166.663 222.18C164.831 234.885 155.331 264.189 149.722 280.786C149.035 282.961 148.348 284.907 147.776 286.509C147.776 286.509 147.776 286.509 147.776 286.624C146.517 290.401 145.716 292.576 145.716 292.576C140.793 306.198 135.07 342.941 134.498 346.375C134.498 346.49 134.498 346.49 134.498 346.604C134.498 346.604 131.98 347.062 130.492 347.978C129.805 348.436 128.889 349.466 127.973 350.611C126.943 351.984 126.027 353.472 126.027 353.472C122.708 356.448 116.87 356.105 116.87 356.105L116.527 354.044C113.093 328.175 117.557 294.866 118.358 293.263C119.045 291.775 123.28 287.769 126.371 282.045C126.6 281.587 126.943 281.13 127.172 280.557C130.377 274.147 138.504 222.294 138.504 222.294L137.016 218.86L139.992 201.919L183.146 186.008C184.634 185.55 186.122 185.207 187.839 184.978C188.182 184.978 188.411 184.864 188.755 184.864C188.755 184.864 188.755 184.864 188.869 184.864C205.581 182.574 229.848 188.641 236.831 191.846C237.975 192.304 238.548 192.762 238.662 193.105C238.777 193.792 238.777 194.937 238.548 196.539Z" fill="url(#paint41_radial)"/>
<path fill-rule="evenodd" clip-rule="evenodd" d="M154.072 369.384C152.698 378.083 139.649 381.174 139.649 381.174C139.649 381.174 139.077 380.831 138.275 380.487C137.131 379.915 135.414 379.343 134.727 379.572C134.04 379.8 132.895 380.258 131.98 380.831C130.949 381.403 130.148 381.861 130.148 381.861C123.395 383.692 116.298 381.861 116.298 381.861C116.298 381.861 115.497 380.029 115.725 378.656C115.84 377.282 117.786 362.859 117.786 362.859C117.786 362.859 124.768 362.745 127.058 360.914C127.515 360.456 129.69 364.233 130.034 363.661C131.178 361.829 129.69 355.305 129.69 355.305C129.69 355.305 135.872 362.859 139.878 365.95C140.679 366.522 141.366 366.98 141.938 367.209C145.372 368.354 149.607 366.98 149.607 366.98C152.698 366.866 154.072 369.384 154.072 369.384Z" fill="url(#paint42_linear)"/>
<path opacity="0.5" d="M175.362 201.691C172.615 206.957 172.501 208.674 172.501 208.674C172.501 208.674 181.315 212.909 187.496 213.596C182.116 214.969 166.663 222.066 166.663 222.066C164.831 234.772 155.331 264.075 149.722 280.673C149.722 280.673 137.817 280.444 126.371 282.276C126.6 281.818 126.943 281.36 127.172 280.787C130.377 274.377 138.504 222.524 138.504 222.524L137.016 219.09L139.992 202.149L183.146 186.238C184.634 185.781 186.122 185.437 187.839 185.208C188.183 185.208 188.411 185.094 188.755 185.094V185.208L187.267 186.124C187.038 186.009 178.11 196.426 175.362 201.691Z" fill="black"/>
<path fill-rule="evenodd" clip-rule="evenodd" d="M238.776 291.091C238.776 291.091 238.662 291.32 238.433 291.778C237.861 293.037 236.144 295.555 232.366 297.501C227.33 300.134 218.058 299.676 218.058 299.676C218.058 299.676 217.944 299.561 217.715 299.447C217.142 299.104 216.227 298.531 216.112 298.531C215.883 298.646 213.708 299.79 213.708 299.79C213.365 299.905 213.022 299.905 212.678 299.905C206.154 300.821 198.828 298.76 198.828 298.76C197.798 292.465 202.147 279.759 202.147 279.759C202.147 279.759 207.527 278.271 209.702 279.072C211.877 279.873 213.022 283.193 214.166 283.193C215.082 283.193 215.425 278.156 215.425 278.156C215.425 278.156 218.401 282.506 221.492 285.253C222.637 286.283 223.781 287.085 224.812 287.428C228.818 288.802 235.114 288.802 235.114 288.802C237.975 289.145 238.776 291.091 238.776 291.091Z" fill="url(#paint43_linear)"/>
<path fill-rule="evenodd" clip-rule="evenodd" d="M194.364 71.543C194.364 71.543 195.279 74.2902 195.737 75.2059C196.31 76.2361 196.539 76.5795 196.539 76.9229C196.539 77.1518 196.195 78.6399 194.707 78.9833C193.219 79.3267 194.364 71.543 194.364 71.543Z" fill="#D2726C"/>
<path fill-rule="evenodd" clip-rule="evenodd" d="M195.852 65.4748C195.852 65.4748 194.249 69.3667 194.364 70.8547C194.478 72.2283 195.165 74.4032 195.165 75.09C195.165 78.4095 193.677 86.6511 189.213 91.4586C188.984 91.6876 188.755 91.9165 188.526 92.2599C188.526 92.2599 184.062 91.6876 179.941 89.2838V91.1152C179.941 91.1152 177.194 91.1152 173.531 91.3442C168.952 91.6876 162.885 92.3744 158.879 94.2058C158.994 94.0914 159.909 92.4888 160.825 90.314C161.741 88.3681 162.657 85.9643 163.229 83.446C163.343 82.7592 163.458 82.0724 163.572 81.2712C163.687 80.4699 163.687 79.6686 163.687 78.8674C163.572 76.4636 163 74.7466 162.313 72.9151C161.054 69.4811 159.223 65.9327 158.879 58.6069C158.879 58.6069 166.434 46.5879 175.248 43.4973C184.062 40.4067 195.394 54.3716 195.394 54.3716C195.394 54.3716 196.424 59.637 195.852 65.4748Z" fill="url(#paint44_linear)"/>
<path opacity="0.4" d="M189.213 91.4612L190.93 92.6059L173.416 91.2323L160.825 90.2021C161.741 88.2562 162.657 85.8524 163.229 83.3341C163.343 82.6473 163.458 81.9605 163.572 81.1593L181.887 75.7793C181.887 75.7793 181.658 69.7126 183.375 67.4233C185.092 65.134 187.725 65.0195 187.725 65.0195C184.749 66.1642 183.375 71.5441 183.375 71.5441L186.465 71.0862C187.725 68.4535 189.556 67.3089 189.556 67.3089C190.472 71.8875 188.182 75.7793 188.068 76.0083C188.297 75.8938 192.074 74.5202 192.761 77.2674C193.448 80.1291 188.869 91.1178 188.869 91.1178L189.213 91.4612Z" fill="url(#paint45_linear)"/>
<path opacity="0.4" d="M195.966 60.2112C195.966 60.2112 193.448 63.9886 193.104 65.5911C193.104 65.5911 194.593 66.6213 195.852 65.4767L194.364 70.8566L191.159 72.2302C191.159 72.2302 193.219 58.3798 195.394 54.1445C195.279 54.1445 195.966 57.1207 195.966 60.2112Z" fill="url(#paint46_linear)"/>
<path opacity="0.8" d="M186.351 71.0867C186.351 71.0867 184.977 73.2615 185.206 76.3521C185.206 76.3521 185.664 72.6892 187.381 71.0867C187.381 71.0867 186.694 72.8037 187.381 73.7194C187.381 73.7194 190.357 70.7433 189.442 67.3093C189.442 67.1948 187.953 68.225 186.351 71.0867Z" fill="url(#paint47_linear)"/>
<path opacity="0.5" d="M179.826 89.1701L180.284 81.1574C180.284 81.1574 174.675 80.0128 163.114 83.3323C163.458 81.8442 163.572 80.2417 163.572 78.7536C163.458 76.3498 162.885 74.6328 162.199 72.8014L166.548 70.8555L182.803 76.0064C182.803 76.0064 183.375 79.2115 185.206 78.9826C185.206 78.9826 184.977 86.3084 188.411 92.2606C188.411 92.2606 183.947 91.6883 179.826 89.1701Z" fill="url(#paint48_linear)"/>
<path fill-rule="evenodd" clip-rule="evenodd" d="M195.966 60.2111C195.966 60.2111 195.966 57.1205 195.279 54.1444C195.279 54.1444 193.677 60.2111 192.418 65.0187C191.158 69.8263 190.93 74.0615 190.93 74.0615L190.243 74.5194C190.243 74.5194 191.158 66.2778 189.67 65.1332C188.182 63.9885 182.23 67.1936 183.031 76.1219C183.031 76.1219 173.302 81.5018 163.114 81.2729C163.114 81.2729 163.458 79.7848 163 77.61C162.084 73.2603 156.704 65.4766 157.277 51.9696L154.644 50.0236C154.987 50.1381 158.078 51.1683 164.946 47.6198C172.157 43.8425 182.802 38.8059 184.291 39.0349C185.779 39.2638 190.93 43.8425 190.93 43.8425C190.93 43.8425 197.454 47.7343 198.713 49.2224C199.743 50.7104 195.966 60.2111 195.966 60.2111Z" fill="url(#paint49_linear)"/>
<path d="M194.478 57.3516C194.478 57.3516 191.731 60.6711 184.977 61.5868C184.977 61.5868 181.2 63.8761 180.513 67.3101C180.513 67.3101 182.688 63.7617 185.779 63.3038C188.755 62.8459 192.303 63.1893 193.219 62.3881L194.478 57.3516Z" fill="url(#paint50_linear)"/>
<path d="M195.05 54.832C195.05 54.832 191.159 58.8383 187.381 60.0975C187.381 60.0975 192.074 58.9528 194.364 57.2358L195.05 54.832Z" fill="url(#paint51_linear)"/>
<path opacity="0.5" d="M190.701 43.8427C190.701 43.8427 184.176 42.1257 177.423 42.3547C177.423 42.3547 182.803 40.6377 184.062 39.0352C184.062 39.0352 186.694 39.9509 190.701 43.8427Z" fill="url(#paint52_linear)"/>
<path opacity="0.5" d="M198.484 49.2223C198.484 49.2223 198.828 51.2827 197.683 52.6563C197.683 52.6563 195.05 49.2223 192.532 47.3909C190.128 45.7884 187.267 45.216 186.809 45.1016C187.267 45.216 190.93 46.7041 192.647 48.7645C192.647 48.7645 187.61 55.289 177.995 56.0903C177.995 56.0903 181.314 54.1444 182.23 52.1985C182.23 52.1985 176.621 52.7708 168.952 56.7771C168.952 56.7771 165.518 54.3733 164.831 53.1142L165.747 50.7104L162.542 53.1142C162.542 53.1142 159.566 53.1142 157.048 51.9695C156.475 65.3621 161.855 73.2602 162.771 77.61C163.229 79.7848 162.885 81.2729 162.885 81.2729C173.073 81.5018 182.803 76.1219 182.803 76.1219C182.001 67.1935 187.954 63.9885 189.442 65.1331C190.93 66.3923 190.014 74.5194 190.014 74.5194L190.701 74.0615C190.701 74.0615 190.93 69.8263 192.189 65.0187C193.448 60.2111 195.05 54.1444 195.05 54.1444C195.737 57.006 195.737 60.2111 195.737 60.2111C195.737 60.2111 199.744 50.7104 198.484 49.2223ZM181.887 59.1809C180.055 59.4098 176.507 58.2652 176.507 58.2652C182.23 57.8073 183.947 55.9758 183.947 55.9758C183.947 55.9758 183.833 59.0664 181.887 59.1809Z" fill="url(#paint53_linear)"/>
<path opacity="0.5" d="M173.416 46.705C173.416 46.705 174.447 44.6446 177.308 44.3012C180.284 43.9578 186.237 45.3314 186.237 45.3314C186.237 45.3314 175.477 46.1327 173.416 46.705Z" fill="url(#paint54_linear)"/>
<path d="M183.375 42.5847C183.375 42.5847 192.99 42.0123 198.484 49.3382C198.484 49.3382 198.942 51.3986 197.683 52.7722C197.683 52.7722 193.105 46.3621 183.375 42.5847Z" fill="url(#paint55_linear)"/>
<path d="M172.729 44.1865C172.729 44.1865 183.031 41.7827 184.062 39.0355C184.062 39.0355 181.887 38.6921 172.729 44.1865Z" fill="url(#paint56_linear)"/>
<path d="M182.23 52.3145C182.23 52.3145 180.055 55.5195 177.995 56.2063C177.995 56.2063 190.243 54.9472 192.647 48.8805C192.647 48.8805 190.701 46.4767 187.496 47.049C184.291 47.6214 182.23 52.3145 182.23 52.3145Z" fill="url(#paint57_linear)"/>
<path d="M154.415 50.1389C154.415 50.1389 157.162 53.5729 162.542 53.2295L169.067 45.5602C169.067 45.4458 159.223 51.398 154.415 50.1389Z" fill="url(#paint58_linear)"/>
<path opacity="0.7" d="M183.375 42.582C183.375 42.582 193.219 45.7871 197.683 52.7695L195.966 60.2098C195.966 60.2098 199.4 54.1431 198.713 49.3355C198.713 49.3355 195.05 43.0399 183.375 42.582Z" fill="url(#paint59_linear)"/>
<path fill-rule="evenodd" clip-rule="evenodd" d="M124.997 201.689C124.997 201.689 135.07 201.461 143.77 199.171C152.469 196.882 146.631 185.55 146.631 185.55L140.564 184.52L124.997 201.689Z" fill="url(#paint60_radial)"/>
<path fill-rule="evenodd" clip-rule="evenodd" d="M199.4 120.19C195.508 130.836 190.701 139.077 190.701 139.077C186.809 145.716 183.032 167.579 183.604 169.296C184.062 170.67 186.237 172.501 187.152 173.76L187.267 173.875C187.496 174.104 187.61 174.447 187.61 174.562C187.839 175.706 185.092 179.026 185.206 179.713C185.206 179.941 185.893 180.972 186.58 182.231C187.038 183.032 187.61 183.948 188.068 184.635C188.64 185.436 188.984 186.008 188.984 186.008L182.917 186.237C168.723 202.72 137.474 202.262 137.474 202.262L138.275 192.876C133.811 197.569 123.967 202.262 123.967 202.262C123.967 202.262 139.649 170.097 139.42 149.608C139.42 149.379 139.42 149.15 139.42 149.15C139.42 147.777 139.306 146.517 139.191 145.373C136.444 125.341 137.36 106.454 138.046 105.767C138.619 105.195 138.733 105.31 143.541 103.364C144.342 103.02 145.372 102.562 146.402 101.99L146.631 101.876C151.324 99.2429 156.933 95.0076 156.933 95.0076V91.3447C167.006 85.0491 179.827 89.2843 179.827 89.2843C192.189 89.0554 203.521 92.0315 203.521 92.0315C205.238 100.616 202.72 111.262 199.4 120.19Z" fill="url(#paint61_radial)"/>
<path d="M138.504 192.877L138.275 192.763C143.884 181.774 145.487 163.803 147.089 146.404C147.89 137.361 148.692 128.776 149.951 121.794C153.728 101.876 161.626 93.0625 161.741 93.0625L161.97 93.2914C161.855 93.4059 154.071 102.105 150.294 121.908C148.92 128.89 148.234 137.475 147.432 146.518C145.715 163.803 144.113 181.774 138.504 192.877Z" fill="url(#paint62_linear)"/>
<path fill-rule="evenodd" clip-rule="evenodd" d="M158.765 90.2011L160.253 87.7974C160.253 87.7974 173.302 83.4476 179.826 89.171C179.826 89.2854 169.067 85.8514 158.765 90.2011Z" fill="url(#paint63_linear)"/>
<path fill-rule="evenodd" clip-rule="evenodd" d="M191.273 230.996C191.273 230.996 192.303 244.503 188.869 253.775L183.947 254.118C183.947 254.118 179.025 272.547 172.501 280.56C172.501 280.56 143.083 278.385 119.045 271.746L111.261 265.451C111.261 265.451 118.587 232.255 125.569 215.887C125.569 216.001 160.253 227.906 191.273 230.996Z" fill="url(#paint64_linear)"/>
<path fill-rule="evenodd" clip-rule="evenodd" d="M125.57 216C125.57 216 157.048 226.531 177.537 226.76C177.537 226.76 182.345 228.362 191.273 231.11C191.273 231.11 162.542 228.935 136.902 220.121L125.57 216Z" fill="url(#paint65_linear)"/>
<path fill-rule="evenodd" clip-rule="evenodd" d="M169.525 216C169.525 216 172.844 218.633 170.669 227.217C170.669 227.217 172.386 228.248 175.019 227.561C175.019 227.561 175.133 218.06 174.103 214.512L169.525 216Z" fill="#50182A"/>
<path fill-rule="evenodd" clip-rule="evenodd" d="M119.045 271.858C119.045 271.858 130.835 241.868 134.727 221.15L137.016 222.752C137.016 222.752 138.275 236.03 136.787 244.615L138.504 245.989C138.504 245.989 140.107 227.445 136.787 220.12L125.455 216.113C125.455 216.113 119.503 228.59 111.147 265.677L119.045 271.858Z" fill="#4B1124"/>
<path fill-rule="evenodd" clip-rule="evenodd" d="M144.685 221.38C144.685 221.38 145.258 222.41 150.065 223.212C150.065 223.212 154.072 216 157.048 214.283V207.301C157.048 207.415 148.577 213.94 144.685 221.38Z" fill="#50182A"/>
<path opacity="0.3" fill-rule="evenodd" clip-rule="evenodd" d="M181.772 259.155L125.569 263.276L119.045 271.861L111.261 265.565L117.557 240.383C117.557 240.383 115.84 256.179 116.985 256.637C119.846 257.782 126.943 245.534 129.576 238.437C133.01 229.051 134.841 221.152 134.841 221.152L137.131 222.755C137.131 222.755 138.504 233.171 136.902 244.618L138.619 245.992C138.619 245.992 158.536 252.173 183.947 254.233L181.772 259.155Z" fill="black"/>
<path fill-rule="evenodd" clip-rule="evenodd" d="M162.199 247.363L167.922 248.622C167.922 248.622 168.265 252.629 166.205 256.406L160.711 255.376V253.773L161.741 247.707L162.199 247.363Z" fill="url(#paint66_linear)"/>
<path fill-rule="evenodd" clip-rule="evenodd" d="M162.199 247.363C162.199 247.363 163.229 251.713 160.711 255.49V253.888L161.741 247.821L162.199 247.363Z" fill="#755689"/>
<path opacity="0.7" fill-rule="evenodd" clip-rule="evenodd" d="M162.428 247.48C162.428 247.48 162.542 250.8 163.801 251.487C165.06 252.174 166.548 252.288 167.235 251.83C167.922 251.372 167.922 248.74 167.922 248.74L162.428 247.48Z" fill="white"/>
<path opacity="0.3" fill-rule="evenodd" clip-rule="evenodd" d="M156.704 262.703L152.011 269.342L157.963 270.372L161.626 264.535L156.704 262.703Z" fill="black"/>
<path fill-rule="evenodd" clip-rule="evenodd" d="M155.56 268.083C155.56 268.083 157.048 266.595 158.65 262.703L162.542 263.848C162.542 263.848 162.199 266.824 159.909 268.884L155.56 268.083Z" fill="url(#paint67_linear)"/>
<path fill-rule="evenodd" clip-rule="evenodd" d="M158.765 262.703H156.704L154.987 267.74L155.56 268.083C155.56 268.083 158.421 265.221 158.765 262.703Z" fill="#755689"/>
<path opacity="0.7" fill-rule="evenodd" clip-rule="evenodd" d="M177.537 226.762L189.327 230.882C189.327 230.882 191.388 242.444 183.947 254.234C186.122 254.119 188.869 253.89 188.869 253.89C188.869 253.89 191.96 246.679 191.273 231.111L177.537 226.762Z" fill="url(#paint68_linear)"/>
<path opacity="0.7" fill-rule="evenodd" clip-rule="evenodd" d="M172.501 280.672L172.272 277.696C172.272 277.696 179.941 265.219 183.947 254.23C183.947 254.23 180.17 270.37 172.501 280.672Z" fill="url(#paint69_linear)"/>
<path opacity="0.91" d="M187.152 128.32C186.58 128.778 185.893 129.122 185.092 129.465C186.237 128.893 187.038 128.435 187.152 128.32Z" fill="url(#paint70_linear)"/>
<path opacity="0.91" d="M190.701 139.078C186.809 145.717 183.032 167.58 183.604 169.297C181.887 174.104 173.531 182.232 173.531 182.232C184.176 179.713 187.038 173.761 187.038 173.761L187.152 173.876C187.381 174.104 187.496 174.448 187.496 174.562C187.725 175.707 184.977 179.027 185.092 179.713C185.092 179.942 185.779 180.972 186.466 182.232L179.712 186.009L187.954 184.521C188.526 185.322 188.869 185.894 188.869 185.894L182.803 186.123C168.609 202.607 137.36 202.149 137.36 202.149L138.161 192.762C133.697 197.456 123.853 202.149 123.853 202.149C123.853 202.149 139.534 169.984 139.305 149.494C139.42 152.241 140.107 166.664 143.77 166.664C147.089 166.664 157.048 147.777 161.97 137.475C167.006 126.944 169.639 100.617 169.639 100.617L169.067 119.161C172.844 109.546 178.682 104.166 178.682 104.166L199.171 120.076C195.623 130.722 190.701 139.078 190.701 139.078Z" fill="url(#paint71_linear)"/>
<path opacity="0.91" d="M156.933 91.3456V95.0085C156.933 95.0085 151.324 99.2437 146.631 101.876L161.855 93.177C161.855 93.177 170.44 88.9418 179.941 89.2852C179.827 89.1707 166.892 85.0499 156.933 91.3456Z" fill="url(#paint72_linear)"/>
<path opacity="0.91" d="M134.498 303.223C134.498 303.223 126.714 339.623 117.328 355.877C117.328 355.877 132.094 312.952 134.498 303.223Z" fill="black"/>
<path opacity="0.5" d="M217.715 207.644L231.222 201.691C231.222 201.691 228.131 214.054 226.529 216C224.926 217.946 212.907 214.512 208.1 225.157C208.1 225.157 211.648 216.915 217.715 207.644Z" fill="url(#paint73_linear)"/>
<path opacity="0.33" d="M187.61 185.093C187.61 185.093 183.26 189.671 179.826 194.937C179.826 194.937 210.618 196.196 238.433 193.105C238.548 193.22 219.661 182.574 187.61 185.093Z" fill="url(#paint74_linear)"/>
<path opacity="0.7" d="M147.661 286.395C147.661 286.395 147.661 286.395 147.661 286.509C146.402 290.286 145.601 292.461 145.601 292.461C140.679 306.083 134.956 342.826 134.383 346.26C134.383 346.375 134.383 346.375 134.383 346.489C134.383 346.489 136.1 304.709 141.595 293.377C141.48 293.606 144.113 287.883 147.661 286.395Z" fill="url(#paint75_linear)"/>
<path opacity="0.7" d="M238.548 196.539C237.975 201.003 235.571 209.13 233.168 219.661C229.963 233.397 226.872 258.007 226.758 259.61V259.724C221.95 232.367 236.831 200.088 238.548 196.539Z" fill="url(#paint76_linear)"/>
<path fill-rule="evenodd" clip-rule="evenodd" d="M175.019 213.023L173.302 216.114L172.844 216.915L169.41 216.572L168.265 215.999L161.97 215.771L161.054 216.572L156.933 216.228L155.788 214.969L156.933 214.282V207.3L155.445 203.637C155.445 203.637 155.674 202.607 157.734 197.685L161.397 196.426L171.928 198.257C172.043 198.372 175.133 206.728 175.019 213.023Z" fill="url(#paint77_linear)"/>
<path opacity="0.4" d="M173.989 214.742L172.844 216.802L169.41 216.459L168.265 215.886L161.97 215.657L161.054 216.459L156.933 216.115L155.788 214.856L156.933 214.169V207.187L155.445 203.524C155.445 203.524 155.674 202.494 157.734 197.572L161.397 196.312L171.928 198.144C171.928 198.144 169.41 200.891 160.596 201.463L159.108 201.921V214.284L161.626 214.742L162.084 214.284H169.295L170.326 214.97L173.989 214.742Z" fill="url(#paint78_linear)"/>
<path fill-rule="evenodd" clip-rule="evenodd" d="M157.048 197.687V198.717C157.048 198.717 165.289 200.091 172.501 198.489L172.272 196.199C172.272 196.199 164.717 197.687 157.048 197.687Z" fill="url(#paint79_linear)"/>
<path fill-rule="evenodd" clip-rule="evenodd" d="M201.003 115.385C201.003 115.385 188.297 128.091 180.857 144.917C180.399 145.947 179.941 146.978 179.597 148.122C175.477 159.454 173.76 175.251 174.561 192.535V192.65C174.561 193.565 174.675 194.596 174.675 195.511C174.675 195.511 164.03 199.975 156.59 197.801C156.59 197.801 150.752 166.551 156.246 150.755C156.361 150.641 156.59 150.297 156.933 149.839C157.048 149.725 157.162 149.496 157.277 149.381C160.367 144.917 169.524 130.838 171.356 117.445C171.356 117.445 179.941 95.3534 196.538 92.1483C198.713 91.6904 201.117 91.6904 203.635 92.0338C203.521 91.9194 205.696 103.023 201.003 115.385Z" fill="url(#paint80_linear)"/>
<path opacity="0.5" d="M179.597 148.238C175.477 159.57 173.76 175.367 174.561 192.651V192.765C174.561 193.91 174.675 194.826 174.675 195.627C174.675 195.627 168.151 178.801 167.693 168.727C167.121 158.654 179.826 146.75 179.826 146.75C179.826 146.75 179.712 147.208 179.597 148.238Z" fill="url(#paint81_linear)"/>
<path opacity="0.8" d="M174.79 195.513C174.79 195.513 168.036 178.915 167.807 168.613C167.807 168.613 171.241 180.976 174.447 183.494L174.79 195.513Z" fill="url(#paint82_linear)"/>
<path opacity="0.2" d="M203.521 91.9195C203.521 91.9195 198.484 87.4553 183.947 101.649C169.296 115.843 165.289 141.369 165.289 141.369C165.289 141.369 174.904 140.339 187.152 130.266C199.4 120.078 202.834 109.547 202.834 109.547C202.834 109.547 205.581 96.3837 203.521 91.9195Z" fill="url(#paint83_linear)"/>
<path opacity="0.4" d="M156.246 150.754C156.246 150.754 159.222 151.898 164.03 148.808C168.838 145.832 169.982 140.223 169.982 140.223C169.982 140.223 162.428 139.193 156.246 150.754Z" fill="url(#paint84_linear)"/>
<path opacity="0.4" d="M157.048 197.685C157.048 197.685 153.843 183.72 156.246 171.129C156.246 171.129 158.879 192.42 161.741 198.372C161.741 198.372 158.994 198.601 157.048 197.685Z" fill="url(#paint85_linear)"/>
<path opacity="0.7" d="M179.826 89.1712C179.826 89.1712 195.966 90.0869 200.659 94.0932C200.659 94.0932 202.033 107.142 197.683 115.727C193.333 124.427 186.122 134.843 186.122 134.843C186.122 134.843 194.478 121.908 200.087 116.3C200.087 116.3 205.467 108.745 203.521 91.9184C203.521 91.9184 193.677 88.8278 179.826 89.1712Z" fill="url(#paint86_linear)"/>
<path opacity="0.7" d="M238.547 193.108C237.746 192.879 211.533 184.637 188.64 184.981C188.64 184.981 188.64 184.981 188.755 184.981C205.467 182.691 229.734 188.758 236.716 191.963C237.288 192.307 237.861 192.764 238.547 193.108Z" fill="url(#paint87_linear)"/>
<path opacity="0.91" fill-rule="evenodd" clip-rule="evenodd" d="M169.982 146.633L158.536 160.941C158.536 160.941 166.892 167.809 175.362 166.893L177.423 156.591L169.982 146.633Z" fill="#935B9D"/>
<path d="M154.072 369.384C152.469 380.602 138.733 381.975 138.733 381.975L133.811 381.746L131.636 384.265C126.256 387.355 116.641 384.837 116.641 384.837L116.183 381.861C116.183 381.861 115.382 380.029 115.611 378.656C115.725 377.282 117.671 362.859 117.671 362.859C117.671 362.859 124.654 362.745 126.943 360.914C127.401 360.456 129.576 364.233 129.919 363.661C131.064 361.829 129.576 355.305 129.576 355.305C129.576 355.305 135.757 362.859 139.763 365.95C139.534 365.836 134.727 363.546 133.697 363.89C132.895 364.119 135.299 369.27 138.619 372.704C139.534 373.734 140.565 374.649 141.709 375.222C146.288 377.511 152.812 374.077 154.072 369.384Z" fill="url(#paint88_linear)"/>
<path d="M238.777 291.091C238.777 291.091 238.662 291.32 238.433 291.778C233.626 302.08 218.287 301.507 218.287 301.507L214.395 301.164C214.052 301.736 213.708 302.194 213.708 302.194C208.786 304.14 199.629 302.194 199.629 302.194L198.713 298.76C197.683 292.465 202.033 279.759 202.033 279.759C202.033 279.759 207.413 278.271 209.588 279.072C211.763 279.873 212.907 283.193 214.052 283.193C214.968 283.193 215.311 278.156 215.311 278.156C215.311 278.156 218.287 282.506 221.378 285.253C221.034 285.253 217.715 285.024 215.883 287.085C215.082 288 216.799 290.404 219.432 292.693C222.637 295.326 227.33 297.73 230.42 297.043C236.258 296.013 238.548 291.434 238.777 291.091Z" fill="url(#paint89_linear)"/>
<path opacity="0.7" d="M222.751 291.091C222.751 291.091 226.185 293.494 230.077 293.723C233.969 293.952 235.686 290.633 235.686 290.633C235.686 290.633 231.451 293.037 222.751 291.091Z" fill="url(#paint90_linear)"/>
<path opacity="0.7" d="M151.324 368.812C151.324 368.812 148.806 373.277 143.999 374.078C143.999 374.078 152.24 375.909 151.324 368.812Z" fill="url(#paint91_linear)"/>
<path fill-rule="evenodd" clip-rule="evenodd" d="M195.623 132.781C195.623 132.781 195.508 133.01 195.394 133.353C193.791 137.245 190.128 143.999 189.556 147.662C189.556 147.662 182.917 160.711 169.067 163L164.03 156.705L171.47 144.915C171.47 144.915 184.634 142.969 190.815 137.245C190.815 137.245 193.562 133.239 195.165 130.148C195.279 130.263 195.852 131.408 195.623 132.781Z" fill="url(#paint92_linear)"/>
<path opacity="0.7" d="M195.394 133.355C193.791 137.247 190.128 144.001 189.556 147.664C189.556 147.664 177.766 153.387 177.423 152.357C177.079 151.212 182.688 145.947 188.526 141.368C192.99 137.934 194.821 134.615 195.394 133.355Z" fill="url(#paint93_linear)"/>
<path opacity="0.7" d="M137.359 114.582C137.359 114.582 138.275 133.354 142.167 141.482C145.944 149.609 137.817 163.917 137.817 163.917C137.817 163.917 139.42 155.218 139.534 149.036C139.649 142.97 136.329 125.914 137.359 114.582Z" fill="url(#paint94_linear)"/>
<path opacity="0.5" d="M118.244 293.379C118.244 293.379 116.298 335.731 119.159 339.394C119.159 339.394 121.906 339.738 126.027 330.466C126.027 330.466 120.304 349.467 116.755 356.221C116.755 356.221 111.948 330.924 118.244 293.379Z" fill="url(#paint95_linear)"/>
<path opacity="0.7" d="M202.605 272.775C202.605 272.775 207.069 263.847 209.13 251.37C211.19 238.893 208.1 225.043 208.1 225.043C208.1 225.043 206.268 256.407 202.605 272.775Z" fill="url(#paint96_linear)"/>
<path fill-rule="evenodd" clip-rule="evenodd" d="M54.9438 374.762L45.5576 300.359H50.2507L57.92 374.762H54.9438Z" fill="#633640"/>
<path fill-rule="evenodd" clip-rule="evenodd" d="M542.684 381.4L552.185 306.883H547.492L539.823 381.4H542.684Z" fill="#633640"/>
<path fill-rule="evenodd" clip-rule="evenodd" d="M551.269 314.44L546.347 353.587C546.347 353.587 508.802 355.19 452.599 356.335C369.268 358.052 245.187 358.967 142.053 352.672C137.703 352.443 133.239 352.099 129.003 351.87C119.846 351.298 111.032 350.611 102.333 349.81C84.1327 348.207 66.8483 346.376 51.1665 344.201L46.3589 306.656H46.4734H46.7023H46.9312C47.0457 306.656 47.2746 306.656 47.5035 306.656H47.8469C51.3954 307 61.354 307.801 76.6924 308.831L78.4094 308.946C88.7114 309.632 101.417 310.434 116.183 311.349C122.479 311.693 129.232 312.036 136.329 312.494C210.847 316.386 326.686 320.163 464.618 317.187C492.662 316.615 521.622 315.699 551.269 314.44Z" fill="url(#paint97_radial)"/>
<path opacity="0.2" fill-rule="evenodd" clip-rule="evenodd" d="M102.218 349.81C84.0182 348.207 66.7338 346.376 51.052 344.201L46.2444 306.656H46.3588H46.5878L78.2949 309.06L102.218 349.81Z" fill="black"/>
<path opacity="0.2" fill-rule="evenodd" clip-rule="evenodd" d="M142.053 352.671C137.703 352.443 133.239 352.099 129.003 351.87L116.298 311.578C122.593 311.922 129.347 312.265 136.444 312.723L142.053 352.671Z" fill="black"/>
<path opacity="0.2" fill-rule="evenodd" clip-rule="evenodd" d="M551.269 314.438L546.347 353.585C546.347 353.585 508.802 355.187 452.599 356.332L464.733 317.185C492.662 316.612 521.622 315.697 551.269 314.438Z" fill="black"/>
<path d="M529.063 260.984L515.785 226.873L516.7 227.102L473.432 272.087L472.974 272.545L472.745 272.087L452.256 232.826L452.828 232.94L444.587 246.676L444.472 246.905L444.129 246.79L387.697 209.017L387.582 208.902L387.697 208.788L428.332 152.127L467.594 116.299V116.413L457.178 114.582L467.594 116.299V116.413L428.447 152.356L388.04 209.017L387.926 208.673L444.472 246.218L444.129 246.333L452.256 232.482L452.599 232.024L452.828 232.597L473.432 271.63L472.745 271.515L515.899 226.415L516.471 225.843L516.815 226.53L530.093 260.526L529.063 260.984Z" fill="#79598A"/>
<path d="M529.635 296.123C541.141 296.123 550.468 286.796 550.468 275.29C550.468 263.784 541.141 254.457 529.635 254.457C518.129 254.457 508.802 263.784 508.802 275.29C508.802 286.796 518.129 296.123 529.635 296.123Z" fill="url(#paint98_radial)"/>
<path d="M516.357 240.037C523.69 240.037 529.635 234.092 529.635 226.759C529.635 219.425 523.69 213.48 516.357 213.48C509.024 213.48 503.079 219.425 503.079 226.759C503.079 234.092 509.024 240.037 516.357 240.037Z" fill="url(#paint99_radial)"/>
<path d="M472.974 282.043C478.601 282.043 483.162 277.482 483.162 271.855C483.162 266.229 478.601 261.668 472.974 261.668C467.348 261.668 462.787 266.229 462.787 271.855C462.787 277.482 467.348 282.043 472.974 282.043Z" fill="url(#paint100_radial)"/>
<path d="M452.485 241.981C457.289 241.981 461.184 238.086 461.184 233.281C461.184 228.477 457.289 224.582 452.485 224.582C447.68 224.582 443.785 228.477 443.785 233.281C443.785 238.086 447.68 241.981 452.485 241.981Z" fill="url(#paint101_radial)"/>
<path d="M444.358 253.771C448.151 253.771 451.226 250.696 451.226 246.903C451.226 243.11 448.151 240.035 444.358 240.035C440.565 240.035 437.49 243.11 437.49 246.903C437.49 250.696 440.565 253.771 444.358 253.771Z" fill="url(#paint102_radial)"/>
<path d="M387.811 214.622C390.972 214.622 393.535 212.06 393.535 208.899C393.535 205.738 390.972 203.176 387.811 203.176C384.65 203.176 382.088 205.738 382.088 208.899C382.088 212.06 384.65 214.622 387.811 214.622Z" fill="url(#paint103_radial)"/>
<path d="M467.594 118.588C468.795 118.588 469.769 117.614 469.769 116.413C469.769 115.212 468.795 114.238 467.594 114.238C466.393 114.238 465.419 115.212 465.419 116.413C465.419 117.614 466.393 118.588 467.594 118.588Z" fill="url(#paint104_linear)"/>
<path d="M428.447 156.474C430.786 156.474 432.682 154.578 432.682 152.239C432.682 149.9 430.786 148.004 428.447 148.004C426.108 148.004 424.212 149.9 424.212 152.239C424.212 154.578 426.108 156.474 428.447 156.474Z" fill="url(#paint105_linear)"/>
<path d="M531.352 268.766V280.556H527.346V271.742H525.4V268.766H531.352Z" fill="white"/>
<path d="M519.905 227.789V229.964H513.037V228.247L516.128 225.385C516.7 224.813 516.815 224.469 516.815 224.241C516.815 223.783 516.586 223.554 516.013 223.554C515.555 223.554 514.983 223.783 514.754 224.355L512.579 223.325C513.152 222.18 514.411 221.379 516.242 221.379C518.303 221.379 519.676 222.409 519.676 224.012C519.676 224.813 519.447 225.614 518.188 226.759L516.929 227.903H519.905V227.789Z" fill="white"/>
<path d="M475.721 273.002C475.721 274.146 474.806 275.406 472.516 275.406C471.6 275.406 470.57 275.177 469.769 274.833L470.57 273.116C471.143 273.46 471.829 273.574 472.402 273.574C472.974 273.574 473.318 273.345 473.318 273.002C473.318 272.658 473.089 272.544 472.516 272.544H471.601V271.056L472.631 270.026H470.112V268.309H475.263V269.797L474.004 271.056C475.149 271.285 475.721 271.972 475.721 273.002Z" fill="white"/>
<path d="M454.431 234.885H453.744V235.801H452.027V234.885H449.394V233.74L451.569 230.535H453.4L451.455 233.511H452.141V232.71H453.744V233.511H454.431V234.885Z" fill="white"/>
<path d="M446.418 247.705C446.418 248.506 445.731 249.308 444.358 249.308C443.671 249.308 442.984 249.193 442.526 248.85L443.098 247.705C443.442 247.934 443.9 248.048 444.358 248.048C444.701 248.048 444.93 247.934 444.93 247.705C444.93 247.476 444.815 247.362 444.243 247.362H442.87L443.098 244.5H446.189V245.645H444.358V246.103H444.586C445.96 246.217 446.418 246.789 446.418 247.705Z" fill="white"/>
<path d="M389.414 209.587C389.414 210.388 388.727 210.961 387.811 210.961C386.667 210.961 385.865 210.274 385.865 209.015C385.865 207.641 386.781 206.84 388.04 206.84C388.498 206.84 388.956 206.954 389.299 207.183L388.842 208.099C388.613 207.985 388.384 207.87 388.155 207.87C387.697 207.87 387.353 208.099 387.239 208.557C387.468 208.442 387.697 208.328 388.04 208.328C388.727 208.328 389.414 208.786 389.414 209.587ZM388.04 209.701C388.04 209.473 387.926 209.244 387.582 209.244C387.353 209.244 387.125 209.358 387.125 209.701C387.125 209.93 387.239 210.159 387.582 210.159C387.926 210.045 388.04 209.93 388.04 209.701Z" fill="white"/>
<path d="M190.384 345.384C193.48 345.384 196.288 343.8 197.752 341.28L193.576 338.88C193.024 340.008 191.824 340.68 190.384 340.68C189.208 340.68 188.248 340.296 187.504 339.528C186.76 338.76 186.4 337.776 186.4 336.6C186.4 335.424 186.76 334.44 187.504 333.672C188.248 332.904 189.208 332.52 190.384 332.52C191.8 332.52 193.024 333.216 193.576 334.296L197.752 331.896C196.288 329.4 193.48 327.816 190.384 327.816C187.864 327.816 185.752 328.656 184.096 330.336C182.44 332.016 181.6 334.104 181.6 336.6C181.6 339.096 182.44 341.184 184.096 342.864C185.752 344.544 187.864 345.384 190.384 345.384ZM213.838 345L208.486 328.2H202.87L197.518 345H202.678L203.254 342.84H208.102L208.678 345H213.838ZM205.678 333.84L207.07 339H204.286L205.678 333.84ZM228.602 344.976L225.29 338.712C226.922 337.728 227.882 336.072 227.882 334.08C227.882 332.304 227.282 330.888 226.082 329.808C224.882 328.728 223.37 328.176 221.522 328.176H214.802V344.976H219.602V339.696H220.802L223.466 344.976H228.602ZM221.426 332.592C222.458 332.592 223.082 333.192 223.082 334.176C223.082 335.16 222.458 335.736 221.426 335.712H219.602V332.592H221.426ZM234.602 338.712H240.122V334.392H234.602V332.568H240.722V328.2H229.802V345H240.842V340.584H234.602V338.712ZM247.562 338.712H253.083V334.392H247.562V332.568H253.682V328.2H242.763V345H253.803V340.584H247.562V338.712ZM269.523 344.976L266.211 338.712C267.843 337.728 268.803 336.072 268.803 334.08C268.803 332.304 268.203 330.888 267.003 329.808C265.803 328.728 264.291 328.176 262.443 328.176H255.723V344.976H260.523V339.696H261.723L264.387 344.976H269.523ZM262.347 332.592C263.379 332.592 264.003 333.192 264.003 334.176C264.003 335.16 263.379 335.736 262.347 335.712H260.523V332.592H262.347ZM290.144 342.864C291.872 341.16 292.736 339.072 292.736 336.6C292.736 334.128 291.872 332.04 290.144 330.36C288.44 328.656 286.328 327.816 283.832 327.816C281.336 327.816 279.224 328.656 277.496 330.36C275.792 332.04 274.928 334.128 274.928 336.6C274.928 339.072 275.792 341.16 277.496 342.864C279.224 344.544 281.336 345.384 283.832 345.384C286.328 345.384 288.44 344.544 290.144 342.864ZM280.88 339.528C280.112 338.736 279.728 337.776 279.728 336.6C279.728 335.424 280.112 334.464 280.88 333.696C281.672 332.904 282.656 332.52 283.832 332.52C285.008 332.52 285.992 332.904 286.76 333.696C287.552 334.464 287.936 335.424 287.936 336.6C287.936 337.776 287.552 338.736 286.76 339.528C285.992 340.296 285.008 340.68 283.832 340.68C282.656 340.68 281.672 340.296 280.88 339.528ZM308.336 344.976L305.024 338.712C306.656 337.728 307.616 336.072 307.616 334.08C307.616 332.304 307.016 330.888 305.816 329.808C304.616 328.728 303.104 328.176 301.256 328.176H294.536V344.976H299.336V339.696H300.536L303.2 344.976H308.336ZM301.16 332.592C302.192 332.592 302.816 333.192 302.816 334.176C302.816 335.16 302.192 335.736 301.16 335.712H299.336V332.592H301.16ZM309.536 345H314.336V328.2H309.536V345ZM321.531 338.712H327.051V334.392H321.531V332.568H327.651V328.2H316.731V345H327.771V340.584H321.531V338.712ZM338.812 335.88L333.532 328.2H329.692V345H334.492V337.32L339.772 345H343.612V328.2H338.812V335.88ZM345.045 328.2V332.856H349.005V345H353.805V332.856H357.765V328.2H345.045ZM372.51 345L367.158 328.2H361.542L356.19 345H361.35L361.926 342.84H366.774L367.35 345H372.51ZM364.35 333.84L365.742 339H362.958L364.35 333.84ZM370.943 328.2V332.856H374.903V345H379.703V332.856H383.663V328.2H370.943ZM385.098 345H389.898V328.2H385.098V345ZM406.91 342.864C408.638 341.16 409.502 339.072 409.502 336.6C409.502 334.128 408.638 332.04 406.91 330.36C405.206 328.656 403.094 327.816 400.598 327.816C398.102 327.816 395.99 328.656 394.262 330.36C392.558 332.04 391.694 334.128 391.694 336.6C391.694 339.072 392.558 341.16 394.262 342.864C395.99 344.544 398.102 345.384 400.598 345.384C403.094 345.384 405.206 344.544 406.91 342.864ZM397.646 339.528C396.878 338.736 396.494 337.776 396.494 336.6C396.494 335.424 396.878 334.464 397.646 333.696C398.438 332.904 399.422 332.52 400.598 332.52C401.774 332.52 402.758 332.904 403.526 333.696C404.318 334.464 404.702 335.424 404.702 336.6C404.702 337.776 404.318 338.736 403.526 339.528C402.758 340.296 401.774 340.68 400.598 340.68C399.422 340.68 398.438 340.296 397.646 339.528ZM420.422 335.88L415.142 328.2H411.302V345H416.102V337.32L421.382 345H425.222V328.2H420.422V335.88Z" fill="white"/>
</g>
<defs>
<radialGradient id="paint0_radial" cx="0" cy="0" r="1" gradientUnits="userSpaceOnUse" gradientTransform="translate(247.116 151.215) scale(187.392)">
<stop stop-color="#98FFEF"/>
<stop offset="0.9829" stop-color="#77DAFF"/>
</radialGradient>
<radialGradient id="paint1_radial" cx="0" cy="0" r="1" gradientUnits="userSpaceOnUse" gradientTransform="translate(481.479 121.816) scale(62.8579)">
<stop stop-color="#98FFEF"/>
<stop offset="0.9829" stop-color="#77DAFF"/>
</radialGradient>
<radialGradient id="paint2_radial" cx="0" cy="0" r="1" gradientUnits="userSpaceOnUse" gradientTransform="translate(34.4021 119.61) scale(38.9089)">
<stop stop-color="#98FFEF"/>
<stop offset="0.9829" stop-color="#77DAFF"/>
</radialGradient>
<linearGradient id="paint3_linear" x1="253.221" y1="127.121" x2="253.221" y2="76.3609" gradientUnits="userSpaceOnUse">
<stop offset="0.0171145" stop-color="#F0ECF4"/>
<stop offset="1" stop-color="white"/>
</linearGradient>
<linearGradient id="paint4_linear" x1="94.0214" y1="123.943" x2="128.472" y2="123.943" gradientUnits="userSpaceOnUse">
<stop offset="0.0171145" stop-color="#F0ECF4"/>
<stop offset="1" stop-color="white"/>
</linearGradient>
<linearGradient id="paint5_linear" x1="367.517" y1="49.7761" x2="367.517" y2="16.0713" gradientUnits="userSpaceOnUse">
<stop offset="0.0171145" stop-color="#F0ECF4"/>
<stop offset="1" stop-color="white"/>
</linearGradient>
<linearGradient id="paint6_linear" x1="412.344" y1="240.914" x2="412.344" y2="59.696" gradientUnits="userSpaceOnUse">
<stop offset="0.0171145" stop-color="#8C74B1"/>
<stop offset="1" stop-color="#DCD8E9"/>
</linearGradient>
<linearGradient id="paint7_linear" x1="408.344" y1="402.084" x2="408.344" y2="106.736" gradientUnits="userSpaceOnUse">
<stop offset="0.0171145" stop-color="#8268AA"/>
<stop offset="1" stop-color="#A9A1CA"/>
</linearGradient>
<linearGradient id="paint8_linear" x1="17.7516" y1="409.931" x2="579.977" y2="409.931" gradientUnits="userSpaceOnUse">
<stop stop-color="#948ABC"/>
<stop offset="0.9829" stop-color="#B7A9CE"/>
</linearGradient>
<linearGradient id="paint9_linear" x1="579.977" y1="373.306" x2="17.7516" y2="373.306" gradientUnits="userSpaceOnUse">
<stop offset="0.0171145" stop-color="#D8CFE4"/>
<stop offset="1" stop-color="#F5F4F9"/>
</linearGradient>
<linearGradient id="paint10_linear" x1="81.6185" y1="350.696" x2="516.312" y2="350.696" gradientUnits="userSpaceOnUse">
<stop stop-color="#948ABC"/>
<stop offset="0.9829" stop-color="#B7A9CE"/>
</linearGradient>
<linearGradient id="paint11_linear" x1="516.312" y1="330.575" x2="81.6185" y2="330.575" gradientUnits="userSpaceOnUse">
<stop offset="0.0171145" stop-color="#D8CFE4"/>
<stop offset="1" stop-color="#F5F4F9"/>
</linearGradient>
<linearGradient id="paint12_linear" x1="121.987" y1="315.509" x2="479.828" y2="315.509" gradientUnits="userSpaceOnUse">
<stop stop-color="#948ABC"/>
<stop offset="0.9829" stop-color="#B7A9CE"/>
</linearGradient>
<linearGradient id="paint13_linear" x1="479.828" y1="304.855" x2="121.987" y2="304.855" gradientUnits="userSpaceOnUse">
<stop offset="0.0171145" stop-color="#D8CFE4"/>
<stop offset="1" stop-color="#F5F4F9"/>
</linearGradient>
<linearGradient id="paint14_linear" x1="146.717" y1="295.038" x2="451.998" y2="295.038" gradientUnits="userSpaceOnUse">
<stop stop-color="#948ABC"/>
<stop offset="0.9829" stop-color="#B7A9CE"/>
</linearGradient>
<linearGradient id="paint15_linear" x1="165.698" y1="279.9" x2="436.786" y2="279.9" gradientUnits="userSpaceOnUse">
<stop stop-color="#948ABC"/>
<stop offset="0.9829" stop-color="#B7A9CE"/>
</linearGradient>
<linearGradient id="paint16_linear" x1="436.786" y1="274.004" x2="165.698" y2="274.004" gradientUnits="userSpaceOnUse">
<stop offset="0.0171145" stop-color="#D8CFE4"/>
<stop offset="1" stop-color="#F5F4F9"/>
</linearGradient>
<linearGradient id="paint17_linear" x1="282.977" y1="395.834" x2="307.563" y2="212.497" gradientUnits="userSpaceOnUse">
<stop stop-color="#948ABC"/>
<stop offset="0.9829" stop-color="#B7A9CE"/>
</linearGradient>
<linearGradient id="paint18_linear" x1="281.194" y1="400.74" x2="307.033" y2="208.059" gradientUnits="userSpaceOnUse">
<stop stop-color="#948ABC"/>
<stop offset="0.9829" stop-color="#B7A9CE"/>
</linearGradient>
<linearGradient id="paint19_linear" x1="282.133" y1="399.494" x2="307.945" y2="207.011" gradientUnits="userSpaceOnUse">
<stop stop-color="#948ABC"/>
<stop offset="0.9829" stop-color="#B7A9CE"/>
</linearGradient>
<linearGradient id="paint20_linear" x1="279.829" y1="397.331" x2="305.45" y2="206.269" gradientUnits="userSpaceOnUse">
<stop stop-color="#948ABC"/>
<stop offset="0.9829" stop-color="#B7A9CE"/>
</linearGradient>
<linearGradient id="paint21_linear" x1="280.315" y1="392.721" x2="305.31" y2="206.332" gradientUnits="userSpaceOnUse">
<stop stop-color="#948ABC"/>
<stop offset="0.9829" stop-color="#B7A9CE"/>
</linearGradient>
<linearGradient id="paint22_linear" x1="278.786" y1="397.254" x2="304.64" y2="204.46" gradientUnits="userSpaceOnUse">
<stop stop-color="#948ABC"/>
<stop offset="0.9829" stop-color="#B7A9CE"/>
</linearGradient>
<linearGradient id="paint23_linear" x1="420.879" y1="262.071" x2="179.199" y2="262.071" gradientUnits="userSpaceOnUse">
<stop offset="0.0171145" stop-color="#D8CFE4"/>
<stop offset="1" stop-color="#F5F4F9"/>
</linearGradient>
<linearGradient id="paint24_linear" x1="349.934" y1="210.091" x2="349.934" y2="63.0301" gradientUnits="userSpaceOnUse">
<stop stop-color="#B2A5C9"/>
<stop offset="0.9829" stop-color="#FDFDFD"/>
</linearGradient>
<linearGradient id="paint25_linear" x1="275.633" y1="410.158" x2="303.509" y2="202.284" gradientUnits="userSpaceOnUse">
<stop stop-color="#948ABC"/>
<stop offset="0.9829" stop-color="#B7A9CE"/>
</linearGradient>
<linearGradient id="paint26_linear" x1="451.955" y1="286.319" x2="146.717" y2="286.319" gradientUnits="userSpaceOnUse">
<stop offset="0.0171145" stop-color="#D8CFE4"/>
<stop offset="1" stop-color="#F5F4F9"/>
</linearGradient>
<linearGradient id="paint27_linear" x1="118.219" y1="267.941" x2="237.207" y2="267.941" gradientUnits="userSpaceOnUse">
<stop offset="0.0159875" stop-color="#D1A1D6"/>
<stop offset="0.9944" stop-color="#BD89C4"/>
</linearGradient>
<linearGradient id="paint28_linear" x1="208.675" y1="286.597" x2="208.675" y2="268.681" gradientUnits="userSpaceOnUse">
<stop stop-color="#AEA8C2"/>
<stop offset="0.9829" stop-color="#8C74B1"/>
</linearGradient>
<linearGradient id="paint29_linear" x1="208.317" y1="285.735" x2="208.317" y2="270.278" gradientUnits="userSpaceOnUse">
<stop/>
<stop offset="0.996" stop-opacity="0"/>
</linearGradient>
<linearGradient id="paint30_linear" x1="124.247" y1="365.188" x2="124.247" y2="345.701" gradientUnits="userSpaceOnUse">
<stop stop-color="#AEA8C2"/>
<stop offset="0.9829" stop-color="#8C74B1"/>
</linearGradient>
<linearGradient id="paint31_linear" x1="124.217" y1="365.171" x2="124.217" y2="345.717" gradientUnits="userSpaceOnUse">
<stop/>
<stop offset="0.996" stop-opacity="0"/>
</linearGradient>
<linearGradient id="paint32_linear" x1="207.92" y1="161.029" x2="207.92" y2="137.448" gradientUnits="userSpaceOnUse">
<stop offset="0.0171145" stop-color="#FF9F7A"/>
<stop offset="1" stop-color="#FFB06D"/>
</linearGradient>
<linearGradient id="paint33_linear" x1="193.942" y1="160.02" x2="195.827" y2="149.333" gradientUnits="userSpaceOnUse">
<stop offset="0.0159875" stop-color="#D1A1D6"/>
<stop offset="0.9944" stop-color="#BD89C4"/>
</linearGradient>
<linearGradient id="paint34_linear" x1="216.004" y1="145.789" x2="216.811" y2="141.211" gradientUnits="userSpaceOnUse">
<stop offset="0.0159875" stop-color="#D1A1D6"/>
<stop offset="0.9944" stop-color="#BD89C4"/>
</linearGradient>
<linearGradient id="paint35_linear" x1="218.02" y1="147.94" x2="218.611" y2="144.584" gradientUnits="userSpaceOnUse">
<stop offset="0.0159875" stop-color="#D1A1D6"/>
<stop offset="0.9944" stop-color="#BD89C4"/>
</linearGradient>
<linearGradient id="paint36_linear" x1="206.485" y1="160.976" x2="206.485" y2="138.763" gradientUnits="userSpaceOnUse">
<stop/>
<stop offset="0.996" stop-opacity="0"/>
</linearGradient>
<linearGradient id="paint37_linear" x1="192.502" y1="161.735" x2="191.65" y2="149.065" gradientUnits="userSpaceOnUse">
<stop offset="0.0171145" stop-color="#E1DBEB"/>
<stop offset="0.1737" stop-color="#E7E2F1"/>
<stop offset="0.5619" stop-color="#F0ECFB"/>
<stop offset="1" stop-color="#F3F0FE"/>
</linearGradient>
<radialGradient id="paint38_radial" cx="0" cy="0" r="1" gradientUnits="userSpaceOnUse" gradientTransform="translate(183.252 153.767) rotate(-3.84762) scale(6.66654)">
<stop stop-color="#4B3272"/>
<stop offset="0.9888" stop-color="#432160"/>
</radialGradient>
<linearGradient id="paint39_linear" x1="218.736" y1="303.179" x2="218.736" y2="291.137" gradientUnits="userSpaceOnUse">
<stop stop-color="#FFB827"/>
<stop offset="0.998" stop-color="#FF6B22"/>
</linearGradient>
<linearGradient id="paint40_linear" x1="135.183" y1="385.699" x2="135.183" y2="369.338" gradientUnits="userSpaceOnUse">
<stop stop-color="#FFB827"/>
<stop offset="0.998" stop-color="#FF6B22"/>
</linearGradient>
<radialGradient id="paint41_radial" cx="0" cy="0" r="1" gradientUnits="userSpaceOnUse" gradientTransform="translate(138.94 238.515) scale(70.695)">
<stop stop-color="#4B3272"/>
<stop offset="0.9888" stop-color="#432160"/>
</radialGradient>
<linearGradient id="paint42_linear" x1="115.639" y1="368.766" x2="154.104" y2="368.766" gradientUnits="userSpaceOnUse">
<stop offset="0.00595246" stop-color="#570E33"/>
<stop offset="1" stop-color="#8D4009"/>
</linearGradient>
<linearGradient id="paint43_linear" x1="198.582" y1="289.25" x2="238.721" y2="289.25" gradientUnits="userSpaceOnUse">
<stop offset="0.00595246" stop-color="#570E33"/>
<stop offset="1" stop-color="#8D4009"/>
</linearGradient>
<linearGradient id="paint44_linear" x1="177.408" y1="94.1009" x2="177.408" y2="42.8245" gradientUnits="userSpaceOnUse">
<stop offset="0.0171145" stop-color="#FF9F7A"/>
<stop offset="1" stop-color="#FFB06D"/>
</linearGradient>
<linearGradient id="paint45_linear" x1="176.815" y1="92.649" x2="176.815" y2="65.0552" gradientUnits="userSpaceOnUse">
<stop/>
<stop offset="0.996" stop-opacity="0"/>
</linearGradient>
<linearGradient id="paint46_linear" x1="193.56" y1="72.2585" x2="193.56" y2="54.1679" gradientUnits="userSpaceOnUse">
<stop/>
<stop offset="0.996" stop-opacity="0"/>
</linearGradient>
<linearGradient id="paint47_linear" x1="187.397" y1="76.3663" x2="187.397" y2="67.3125" gradientUnits="userSpaceOnUse">
<stop/>
<stop offset="0.996" stop-opacity="0"/>
</linearGradient>
<linearGradient id="paint48_linear" x1="175.294" y1="92.2941" x2="175.294" y2="70.8832" gradientUnits="userSpaceOnUse">
<stop/>
<stop offset="0.996" stop-opacity="0"/>
</linearGradient>
<linearGradient id="paint49_linear" x1="176.579" y1="81.2282" x2="176.579" y2="39.0261" gradientUnits="userSpaceOnUse">
<stop offset="0.00558659" stop-color="#721D3B"/>
<stop offset="1" stop-color="#A63624"/>
</linearGradient>
<linearGradient id="paint50_linear" x1="186.379" y1="68.2888" x2="188.497" y2="56.2762" gradientUnits="userSpaceOnUse">
<stop offset="0.0111732" stop-color="#AE3438"/>
<stop offset="0.9944" stop-color="#E06E31"/>
</linearGradient>
<linearGradient id="paint51_linear" x1="190.698" y1="60.7028" x2="191.828" y2="54.2903" gradientUnits="userSpaceOnUse">
<stop offset="0.0111732" stop-color="#AE3438"/>
<stop offset="0.9944" stop-color="#E06E31"/>
</linearGradient>
<linearGradient id="paint52_linear" x1="184.056" y1="43.8503" x2="184.056" y2="39.0414" gradientUnits="userSpaceOnUse">
<stop/>
<stop offset="0.996" stop-opacity="0"/>
</linearGradient>
<linearGradient id="paint53_linear" x1="177.849" y1="81.3366" x2="177.849" y2="45.1484" gradientUnits="userSpaceOnUse">
<stop/>
<stop offset="0.996" stop-opacity="0"/>
</linearGradient>
<linearGradient id="paint54_linear" x1="179.821" y1="46.7088" x2="179.821" y2="44.2493" gradientUnits="userSpaceOnUse">
<stop/>
<stop offset="0.996" stop-opacity="0"/>
</linearGradient>
<linearGradient id="paint55_linear" x1="183.336" y1="47.6422" x2="198.585" y2="47.6422" gradientUnits="userSpaceOnUse">
<stop offset="0.0111732" stop-color="#AE3438"/>
<stop offset="0.9944" stop-color="#E06E31"/>
</linearGradient>
<linearGradient id="paint56_linear" x1="172.706" y1="41.611" x2="184.052" y2="41.611" gradientUnits="userSpaceOnUse">
<stop offset="0.0111732" stop-color="#AE3438"/>
<stop offset="0.9944" stop-color="#E06E31"/>
</linearGradient>
<linearGradient id="paint57_linear" x1="184.458" y1="57.4059" x2="186.357" y2="46.6378" gradientUnits="userSpaceOnUse">
<stop offset="0.0111732" stop-color="#AE3438"/>
<stop offset="0.9944" stop-color="#B54F31"/>
</linearGradient>
<linearGradient id="paint58_linear" x1="160.809" y1="53.2074" x2="162.388" y2="44.2562" gradientUnits="userSpaceOnUse">
<stop offset="0.00558659" stop-color="#E06E31"/>
<stop offset="0.9888" stop-color="#AE3438"/>
</linearGradient>
<linearGradient id="paint59_linear" x1="191.064" y1="60.1549" x2="191.064" y2="42.4982" gradientUnits="userSpaceOnUse">
<stop stop-color="white" stop-opacity="0"/>
<stop offset="1" stop-color="white"/>
</linearGradient>
<radialGradient id="paint60_radial" cx="0" cy="0" r="1" gradientUnits="userSpaceOnUse" gradientTransform="translate(136.801 193.095) scale(10.3104)">
<stop stop-color="#AEA8C2"/>
<stop offset="0.9829" stop-color="#8C74B1"/>
</radialGradient>
<radialGradient id="paint61_radial" cx="0" cy="0" r="1" gradientUnits="userSpaceOnUse" gradientTransform="translate(139.493 123.809) scale(46.5204)">
<stop stop-color="#543C79"/>
<stop offset="0.9888" stop-color="#432160"/>
</radialGradient>
<linearGradient id="paint62_linear" x1="140.762" y1="193.232" x2="158.539" y2="92.4178" gradientUnits="userSpaceOnUse">
<stop offset="0.00558659" stop-color="#B060F4"/>
<stop offset="1" stop-color="#FFEADB"/>
</linearGradient>
<linearGradient id="paint63_linear" x1="169.331" y1="90.2448" x2="169.331" y2="86.2886" gradientUnits="userSpaceOnUse">
<stop offset="0.0171145" stop-color="#E1DBEB"/>
<stop offset="0.1737" stop-color="#E7E2F1"/>
<stop offset="0.5619" stop-color="#F0ECFB"/>
<stop offset="1" stop-color="#F3F0FE"/>
</linearGradient>
<linearGradient id="paint64_linear" x1="110.284" y1="250.862" x2="192.187" y2="245.486" gradientUnits="userSpaceOnUse">
<stop offset="0.00595246" stop-color="#570E33"/>
<stop offset="1" stop-color="#893100"/>
</linearGradient>
<linearGradient id="paint65_linear" x1="126.213" y1="225.614" x2="190.605" y2="221.387" gradientUnits="userSpaceOnUse">
<stop stop-color="#8D4009"/>
<stop offset="0.994" stop-color="#CC5A33"/>
</linearGradient>
<linearGradient id="paint66_linear" x1="164.421" y1="256.443" x2="164.421" y2="247.338" gradientUnits="userSpaceOnUse">
<stop stop-color="#AEA8C2"/>
<stop offset="0.9829" stop-color="#8C74B1"/>
</linearGradient>
<linearGradient id="paint67_linear" x1="159.09" y1="268.896" x2="159.09" y2="262.694" gradientUnits="userSpaceOnUse">
<stop stop-color="#AEA8C2"/>
<stop offset="0.9829" stop-color="#8C74B1"/>
</linearGradient>
<linearGradient id="paint68_linear" x1="177.555" y1="240.464" x2="191.351" y2="240.464" gradientUnits="userSpaceOnUse">
<stop stop-opacity="0"/>
<stop offset="0.5735" stop-color="#32A3AB"/>
<stop offset="0.7663" stop-color="#3FCFD8"/>
<stop offset="0.9144" stop-color="#47EAF5"/>
<stop offset="1" stop-color="#4AF4FF"/>
</linearGradient>
<linearGradient id="paint69_linear" x1="172.244" y1="267.425" x2="183.949" y2="267.425" gradientUnits="userSpaceOnUse">
<stop stop-opacity="0"/>
<stop offset="0.5735" stop-color="#32A3AB"/>
<stop offset="0.7663" stop-color="#3FCFD8"/>
<stop offset="0.9144" stop-color="#47EAF5"/>
<stop offset="1" stop-color="#4AF4FF"/>
</linearGradient>
<linearGradient id="paint70_linear" x1="186.028" y1="129.669" x2="186.288" y2="128.193" gradientUnits="userSpaceOnUse">
<stop offset="0.0159875" stop-color="#D1A1D6"/>
<stop offset="0.9944" stop-color="#BD89C4"/>
</linearGradient>
<linearGradient id="paint71_linear" x1="161.48" y1="202.309" x2="161.48" y2="100.749" gradientUnits="userSpaceOnUse">
<stop/>
<stop offset="0.996" stop-opacity="0"/>
</linearGradient>
<linearGradient id="paint72_linear" x1="163.272" y1="101.898" x2="163.272" y2="87.8736" gradientUnits="userSpaceOnUse">
<stop/>
<stop offset="0.996" stop-opacity="0"/>
</linearGradient>
<linearGradient id="paint73_linear" x1="219.651" y1="225.194" x2="219.651" y2="201.722" gradientUnits="userSpaceOnUse">
<stop/>
<stop offset="0.996" stop-opacity="0"/>
</linearGradient>
<linearGradient id="paint74_linear" x1="179.871" y1="189.972" x2="238.52" y2="189.972" gradientUnits="userSpaceOnUse">
<stop stop-opacity="0"/>
<stop offset="0.3434" stop-color="#42476B"/>
<stop offset="0.5735" stop-color="#6971AB"/>
<stop offset="0.7663" stop-color="#858FD8"/>
<stop offset="0.9144" stop-color="#97A2F5"/>
<stop offset="1" stop-color="#9DA9FF"/>
</linearGradient>
<linearGradient id="paint75_linear" x1="140.94" y1="346.681" x2="140.94" y2="286.446" gradientUnits="userSpaceOnUse">
<stop stop-color="#4AF4FF"/>
<stop offset="0.0856309" stop-color="#47EAF5"/>
<stop offset="0.2337" stop-color="#3FCFD8"/>
<stop offset="0.4265" stop-color="#32A3AB"/>
<stop offset="1" stop-opacity="0"/>
</linearGradient>
<linearGradient id="paint76_linear" x1="232.164" y1="259.631" x2="232.164" y2="196.518" gradientUnits="userSpaceOnUse">
<stop stop-color="#4AF4FF"/>
<stop offset="0.0856309" stop-color="#47EAF5"/>
<stop offset="0.2337" stop-color="#3FCFD8"/>
<stop offset="0.4265" stop-color="#32A3AB"/>
<stop offset="1" stop-opacity="0"/>
</linearGradient>
<linearGradient id="paint77_linear" x1="165.28" y1="216.837" x2="165.28" y2="196.54" gradientUnits="userSpaceOnUse">
<stop stop-color="#F4867C"/>
<stop offset="0.984" stop-color="#FF9F68"/>
</linearGradient>
<linearGradient id="paint78_linear" x1="164.709" y1="216.834" x2="164.709" y2="196.339" gradientUnits="userSpaceOnUse">
<stop/>
<stop offset="0.996" stop-opacity="0"/>
</linearGradient>
<linearGradient id="paint79_linear" x1="164.741" y1="199.216" x2="164.741" y2="196.189" gradientUnits="userSpaceOnUse">
<stop offset="0.0171145" stop-color="#E1DBEB"/>
<stop offset="0.1737" stop-color="#E7E2F1"/>
<stop offset="0.5619" stop-color="#F0ECFB"/>
<stop offset="1" stop-color="#F3F0FE"/>
</linearGradient>
<linearGradient id="paint80_linear" x1="178.987" y1="198.427" x2="178.987" y2="91.735" gradientUnits="userSpaceOnUse">
<stop stop-color="#644E85"/>
<stop offset="0.9888" stop-color="#4B2B67"/>
</linearGradient>
<linearGradient id="paint81_linear" x1="173.745" y1="195.703" x2="173.745" y2="146.813" gradientUnits="userSpaceOnUse">
<stop/>
<stop offset="0.996" stop-opacity="0"/>
</linearGradient>
<linearGradient id="paint82_linear" x1="171.296" y1="195.555" x2="171.296" y2="168.648" gradientUnits="userSpaceOnUse">
<stop/>
<stop offset="0.996" stop-opacity="0"/>
</linearGradient>
<linearGradient id="paint83_linear" x1="165.277" y1="116.367" x2="204.294" y2="116.367" gradientUnits="userSpaceOnUse">
<stop/>
<stop offset="0.08447" stop-color="#071C1C"/>
<stop offset="0.3434" stop-color="#1C6B6B"/>
<stop offset="0.5735" stop-color="#2DABAB"/>
<stop offset="0.7663" stop-color="#39D8D8"/>
<stop offset="0.9144" stop-color="#40F5F5"/>
<stop offset="1" stop-color="#43FFFF"/>
</linearGradient>
<linearGradient id="paint84_linear" x1="163.092" y1="150.927" x2="163.092" y2="140.148" gradientUnits="userSpaceOnUse">
<stop stop-color="white"/>
<stop offset="1" stop-color="white" stop-opacity="0"/>
</linearGradient>
<linearGradient id="paint85_linear" x1="158.544" y1="198.44" x2="158.544" y2="171.164" gradientUnits="userSpaceOnUse">
<stop/>
<stop offset="0.996" stop-opacity="0"/>
</linearGradient>
<linearGradient id="paint86_linear" x1="179.841" y1="112.052" x2="203.987" y2="112.052" gradientUnits="userSpaceOnUse">
<stop/>
<stop offset="0.08447" stop-color="#081A1C"/>
<stop offset="0.3434" stop-color="#1F676B"/>
<stop offset="0.5735" stop-color="#32A3AB"/>
<stop offset="0.7663" stop-color="#3FCFD8"/>
<stop offset="0.9144" stop-color="#47EAF5"/>
<stop offset="1" stop-color="#4AF4FF"/>
</linearGradient>
<linearGradient id="paint87_linear" x1="188.539" y1="188.822" x2="238.499" y2="188.822" gradientUnits="userSpaceOnUse">
<stop/>
<stop offset="0.08447" stop-color="#081A1C"/>
<stop offset="0.3434" stop-color="#1F676B"/>
<stop offset="0.5735" stop-color="#32A3AB"/>
<stop offset="0.7663" stop-color="#3FCFD8"/>
<stop offset="0.9144" stop-color="#47EAF5"/>
<stop offset="1" stop-color="#4AF4FF"/>
</linearGradient>
<linearGradient id="paint88_linear" x1="134.804" y1="385.852" x2="134.804" y2="355.344" gradientUnits="userSpaceOnUse">
<stop/>
<stop offset="0.996" stop-opacity="0"/>
</linearGradient>
<linearGradient id="paint89_linear" x1="218.649" y1="303.098" x2="218.649" y2="278.188" gradientUnits="userSpaceOnUse">
<stop/>
<stop offset="0.996" stop-opacity="0"/>
</linearGradient>
<linearGradient id="paint90_linear" x1="222.783" y1="292.272" x2="235.666" y2="292.272" gradientUnits="userSpaceOnUse">
<stop/>
<stop offset="0.08447" stop-color="#081A1C"/>
<stop offset="0.3434" stop-color="#1F676B"/>
<stop offset="0.5735" stop-color="#32A3AB"/>
<stop offset="0.7663" stop-color="#3FCFD8"/>
<stop offset="0.9144" stop-color="#47EAF5"/>
<stop offset="1" stop-color="#4AF4FF"/>
</linearGradient>
<linearGradient id="paint91_linear" x1="143.95" y1="371.527" x2="151.376" y2="371.527" gradientUnits="userSpaceOnUse">
<stop stop-opacity="0"/>
<stop offset="1" stop-color="#4AF4FF"/>
</linearGradient>
<linearGradient id="paint92_linear" x1="164.083" y1="146.68" x2="195.66" y2="146.68" gradientUnits="userSpaceOnUse">
<stop offset="0.00198413" stop-color="#D40E27"/>
<stop offset="1" stop-color="#FF4025"/>
</linearGradient>
<linearGradient id="paint93_linear" x1="186.371" y1="152.421" x2="186.371" y2="133.264" gradientUnits="userSpaceOnUse">
<stop stop-color="white" stop-opacity="0"/>
<stop offset="1" stop-color="white"/>
</linearGradient>
<linearGradient id="paint94_linear" x1="140.2" y1="163.872" x2="140.2" y2="114.559" gradientUnits="userSpaceOnUse">
<stop stop-opacity="0"/>
<stop offset="1" stop-color="#FF5179"/>
</linearGradient>
<linearGradient id="paint95_linear" x1="120.469" y1="356.25" x2="120.469" y2="293.411" gradientUnits="userSpaceOnUse">
<stop stop-color="#FF5179"/>
<stop offset="0.0856309" stop-color="#F54E74"/>
<stop offset="0.2337" stop-color="#D84567"/>
<stop offset="0.4265" stop-color="#AB3651"/>
<stop offset="0.6566" stop-color="#6B2233"/>
<stop offset="0.9155" stop-color="#1C090D"/>
<stop offset="1"/>
</linearGradient>
<linearGradient id="paint96_linear" x1="206.265" y1="272.829" x2="206.265" y2="225.102" gradientUnits="userSpaceOnUse">
<stop stop-color="#FF5179"/>
<stop offset="1" stop-opacity="0"/>
</linearGradient>
<radialGradient id="paint97_radial" cx="0" cy="0" r="1" gradientUnits="userSpaceOnUse" gradientTransform="translate(298.779 332.127) scale(179.417)">
<stop stop-color="#FF5627"/>
<stop offset="0.998" stop-color="#E03347"/>
</radialGradient>
<radialGradient id="paint98_radial" cx="0" cy="0" r="1" gradientUnits="userSpaceOnUse" gradientTransform="translate(534.725 268.255) scale(20.8492)">
<stop stop-color="#FF5627"/>
<stop offset="0.998" stop-color="#E03347"/>
</radialGradient>
<radialGradient id="paint99_radial" cx="0" cy="0" r="1" gradientUnits="userSpaceOnUse" gradientTransform="translate(518.963 221.322) scale(13.2926)">
<stop stop-color="#FF5627"/>
<stop offset="0.998" stop-color="#E03347"/>
</radialGradient>
<radialGradient id="paint100_radial" cx="0" cy="0" r="1" gradientUnits="userSpaceOnUse" gradientTransform="translate(475.44 267.623) scale(10.168)">
<stop stop-color="#FF5627"/>
<stop offset="0.998" stop-color="#E03347"/>
</radialGradient>
<radialGradient id="paint101_radial" cx="0" cy="0" r="1" gradientUnits="userSpaceOnUse" gradientTransform="translate(455.803 229.24) scale(8.73341)">
<stop stop-color="#FF5627"/>
<stop offset="0.998" stop-color="#E03347"/>
</radialGradient>
<radialGradient id="paint102_radial" cx="0" cy="0" r="1" gradientUnits="userSpaceOnUse" gradientTransform="translate(446.437 244.21) scale(6.83605)">
<stop stop-color="#FF5627"/>
<stop offset="0.998" stop-color="#E03347"/>
</radialGradient>
<radialGradient id="paint103_radial" cx="0" cy="0" r="1" gradientUnits="userSpaceOnUse" gradientTransform="translate(390.105 206.738) scale(5.68346)">
<stop stop-color="#FF5627"/>
<stop offset="0.998" stop-color="#E03347"/>
</radialGradient>
<linearGradient id="paint104_linear" x1="467.592" y1="118.496" x2="467.592" y2="114.234" gradientUnits="userSpaceOnUse">
<stop offset="0.00198413" stop-color="#E03347"/>
<stop offset="1" stop-color="#FF5627"/>
</linearGradient>
<linearGradient id="paint105_linear" x1="428.401" y1="156.492" x2="428.401" y2="147.99" gradientUnits="userSpaceOnUse">
<stop offset="0.00198413" stop-color="#E03347"/>
<stop offset="1" stop-color="#FF5627"/>
</linearGradient>
<clipPath id="clip0">
<rect width="580" height="434.17" fill="white"/>
</clipPath>
</defs>
</svg>
